<svg width="64" height="64" viewBox="0 0 64 64" fill="none" xmlns="http://www.w3.org/2000/svg">
<g clip-path="url(#clip0_143_780)">
<rect width="64" height="64" fill="white"/>
<mask id="mask0_143_780" style="mask-type:alpha" maskUnits="userSpaceOnUse" x="8" y="9" width="48" height="48">
<path fill-rule="evenodd" clip-rule="evenodd" d="M48.7771 24.6565C51.1793 24.6565 53.1267 26.6038 53.1267 29.006V41.0821C53.1167 44.2537 51.9316 47.3091 49.8002 49.6579C47.6688 52.0066 44.7425 53.4819 41.5868 53.7988C38.431 54.1157 35.2697 53.2516 32.7139 51.3736C30.1581 49.4955 28.3891 46.7368 27.7488 43.6305C31.1881 42.7307 34.232 40.7158 36.4039 37.9013C38.5757 35.0867 39.7529 31.6313 39.7511 28.0762V24.6565H48.7771ZM40.1208 41.7027C37.9104 41.6302 35.7439 42.3306 33.9942 43.6833C33.659 43.957 33.4458 44.3524 33.4012 44.7829C33.3567 45.2135 33.4844 45.6442 33.7565 45.9808C33.8901 46.1537 34.0575 46.2976 34.2485 46.4038C34.4395 46.51 34.6501 46.5762 34.8675 46.5985C35.0849 46.6207 35.3045 46.5985 35.513 46.5332C35.7216 46.4678 35.9146 46.3607 36.0804 46.2184C37.2441 45.3146 38.6878 44.8473 40.1604 44.898C41.6327 44.8496 43.0757 45.3166 44.2404 46.2184C44.5762 46.4864 45.0039 46.6117 45.4312 46.5672C45.8585 46.5228 46.2513 46.3121 46.5247 45.9808C46.6565 45.8108 46.7536 45.6166 46.8103 45.4091C46.867 45.2017 46.8823 44.9852 46.8553 44.7719C46.8284 44.5585 46.7596 44.3525 46.6531 44.1657C46.5465 43.979 46.4042 43.815 46.2342 43.6833C44.4886 42.3325 42.3269 41.6321 40.1208 41.7027ZM47.4762 32.1991C47.0504 32.1339 46.6162 32.2405 46.269 32.4954L44.9599 33.4566C44.6128 33.7116 44.3811 34.0941 44.3159 34.5198C44.2507 34.9456 44.3572 35.3798 44.6122 35.727C44.8671 36.0741 45.2496 36.3058 45.6754 36.3711C46.1011 36.4363 46.5353 36.3297 46.8825 36.0747L48.1916 35.1135C48.5388 34.8585 48.7704 34.4761 48.8356 34.0504C48.9008 33.6246 48.7943 33.1903 48.5394 32.8432C48.2844 32.496 47.9019 32.2643 47.4762 32.1991Z" fill="white" fill-opacity="0.7"/>
<path fill-rule="evenodd" clip-rule="evenodd" d="M36.503 28.076V15.9999C36.503 13.5977 34.5557 11.6504 32.1535 11.6504H15.2238C12.8216 11.6504 10.8743 13.5977 10.8743 15.9999V28.076C10.8191 29.7934 11.1098 31.5044 11.729 33.1073C12.3481 34.7102 13.2832 36.1722 14.4786 37.4066C15.6739 38.6409 17.1052 39.6224 18.6874 40.2927C20.2696 40.963 21.9703 41.3084 23.6886 41.3084C25.4069 41.3084 27.1077 40.963 28.6899 40.2927C30.2721 39.6224 31.7034 38.6409 32.8987 37.4066C34.0941 36.1722 35.0292 34.7102 35.6483 33.1073C36.2675 31.5044 36.5582 29.7934 36.503 28.076ZM14.9411 20.5894C14.9393 20.3757 14.9801 20.1637 15.0611 19.9658C15.1421 19.768 15.2617 19.5883 15.4128 19.4371C15.564 19.2859 15.7437 19.1664 15.9416 19.0854C16.1394 19.0044 16.3514 18.9636 16.5652 18.9653H18.1892C18.62 18.9653 19.0331 19.1364 19.3376 19.441C19.6422 19.7456 19.8133 20.1587 19.8133 20.5894C19.8133 21.0202 19.6422 21.4332 19.3376 21.7378C19.0331 22.0424 18.62 22.2135 18.1892 22.2135H16.5652C16.3514 22.2153 16.1394 22.1745 15.9416 22.0935C15.7437 22.0125 15.564 21.8929 15.4128 21.7417C15.2617 21.5906 15.1421 21.4108 15.0611 21.213C14.9801 21.0152 14.9393 20.8032 14.9411 20.5894ZM29.9803 32.4729C28.2387 33.8218 26.0818 34.5221 23.8801 34.4535C21.6697 34.526 19.5032 33.8256 17.7535 32.4729C17.4173 32.2015 17.2027 31.8077 17.1569 31.3781C17.1111 30.9484 17.2378 30.5182 17.5092 30.182C17.7806 29.8459 18.1745 29.6313 18.6041 29.5855C19.0337 29.5396 19.4639 29.6664 19.8001 29.9378C20.9622 30.8446 22.407 31.3122 23.8801 31.2582C25.3521 31.3044 26.7943 30.8376 27.9601 29.9378C28.1239 29.8021 28.3131 29.7005 28.5167 29.6389C28.7203 29.5773 28.9341 29.557 29.1456 29.5791C29.3571 29.6013 29.5621 29.6654 29.7485 29.7678C29.9349 29.8702 30.099 30.0088 30.2312 30.1754C30.4856 30.5102 30.6015 30.9301 30.5548 31.348C30.508 31.7658 30.3024 32.1497 29.9803 32.4201V32.4729ZM31.1818 22.2135H29.5578C29.3445 22.2135 29.1333 22.1715 28.9363 22.0899C28.7392 22.0083 28.5602 21.8886 28.4094 21.7378C28.2586 21.587 28.1389 21.408 28.0573 21.2109C27.9757 21.0139 27.9337 20.8027 27.9337 20.5894C27.9337 20.3761 27.9757 20.165 28.0573 19.9679C28.1389 19.7709 28.2586 19.5918 28.4094 19.441C28.5602 19.2902 28.7392 19.1706 28.9363 19.089C29.1333 19.0074 29.3445 18.9653 29.5578 18.9653H31.1818C31.3951 18.9653 31.6063 19.0074 31.8034 19.089C32.0004 19.1706 32.1794 19.2902 32.3302 19.441C32.4811 19.5918 32.6007 19.7709 32.6823 19.9679C32.7639 20.165 32.8059 20.3761 32.8059 20.5894C32.8059 20.8027 32.7639 21.0139 32.6823 21.2109C32.6007 21.408 32.4811 21.587 32.3302 21.7378C32.1794 21.8886 32.0004 22.0083 31.8034 22.0899C31.6063 22.1715 31.3951 22.2135 31.1818 22.2135Z" fill="white"/>
</mask>
<g mask="url(#mask0_143_780)">
<g filter="url(#filter0_f_143_780)">
<path d="M4.73758 11.6298H56.4233V53.9218H4.73758V11.6298Z" fill="#3E98FE"/>
<path fill-rule="evenodd" clip-rule="evenodd" d="M16.5246 5.04036C20.1689 4.43421 23.5942 6.51894 26.4518 8.69617C29.6875 11.1615 33.032 14.0107 33.3693 17.8747C33.7251 21.9514 31.3521 25.8 28.1948 28.6647C25.0681 31.5015 20.8881 33.5157 16.5246 33.1579C12.4239 32.8217 9.56536 29.6888 6.75562 26.9068C4.08466 24.2623 0.425005 21.4406 1.08879 17.8747C1.7339 14.4091 6.79648 13.8464 9.62451 11.495C12.1536 9.39214 13.177 5.59716 16.5246 5.04036Z" fill="url(#paint0_radial_143_780)"/>
<path fill-rule="evenodd" clip-rule="evenodd" d="M38.0245 33.2952C41.2868 32.7481 44.3531 34.6297 46.9111 36.5949C49.8077 38.8201 52.8016 41.3918 53.1035 44.8794C53.4221 48.5591 51.2978 52.0328 48.4714 54.6184C45.6725 57.1789 41.9306 58.997 38.0245 58.674C34.3535 58.3706 31.7947 55.5428 29.2794 53.0318C26.8884 50.6448 23.6124 48.098 24.2066 44.8794C24.7841 41.7514 29.316 41.2435 31.8476 39.1211C34.1116 37.2231 35.0277 33.7978 38.0245 33.2952Z" fill="url(#paint1_radial_143_780)"/>
<path fill-rule="evenodd" clip-rule="evenodd" d="M57.0463 11.9762C59.5995 13.3148 60.058 20.3412 61.7269 24.6546C63.0906 28.179 65.9293 30.0362 65.7949 34.5875C65.6606 39.1348 62.7513 40.2555 61.1748 43.3487C59.7192 46.2048 58.9827 50.8523 57.0463 51.7532C54.7944 52.8008 46.3529 51.4318 44.4861 48.5611C42.2448 45.1145 46.0381 40.4365 45.7847 34.5875C45.516 28.3857 47.171 22.4364 49.2939 18.1361C51.3688 13.933 54.2615 10.5161 57.0463 11.9762Z" fill="url(#paint2_radial_143_780)"/>
<path fill-rule="evenodd" clip-rule="evenodd" d="M39.8852 -2.21948C42.4384 -1.48491 42.897 2.37085 44.5659 4.73786C45.9295 6.67188 48.7682 7.69101 48.6338 10.1885C48.4995 12.6839 45.5902 13.2989 44.0138 14.9963C42.5582 16.5636 41.8217 19.1139 39.8852 19.6083C37.6333 20.1832 29.1918 19.4319 27.3251 17.8566C25.0838 15.9653 28.877 13.3982 28.6236 10.1885C28.355 6.78528 30.0099 3.52058 32.1328 1.16082C34.2078 -1.14564 37.1004 -3.02067 39.8852 -2.21948Z" fill="url(#paint3_radial_143_780)"/>
<path fill-rule="evenodd" clip-rule="evenodd" d="M15.1182 39.7707C17.2132 39.7308 15.5007 41.2517 16.8401 43.5232C18.2047 45.8376 20.6557 46.1124 20.6027 49.1212C20.5526 51.9641 28.0053 49.8312 26.9348 52.2414C25.8161 54.7601 17.2257 58.8438 15.1182 58.8907C12.9697 58.9385 10.637 58.5844 9.1844 56.3518C7.76799 54.1749 8.01342 50.9394 8.02276 47.9852C8.03203 45.0511 7.62879 41.5547 9.23707 39.6928C10.8122 37.8693 13.0804 39.8095 15.1182 39.7707Z" fill="#BEBAFF"/>
</g>
</g>
</g>
<rect x="0.707182" y="0.707182" width="62.5856" height="62.5856" rx="14.1436" stroke="white" stroke-opacity="0.5" stroke-width="1.41436"/>
<defs>
<filter id="filter0_f_143_780" x="-5.40496" y="-8.82245" width="77.6193" height="74.132" filterUnits="userSpaceOnUse" color-interpolation-filters="sRGB">
<feFlood flood-opacity="0" result="BackgroundImageFix"/>
<feBlend mode="normal" in="SourceGraphic" in2="BackgroundImageFix" result="shape"/>
<feGaussianBlur stdDeviation="3.20737" result="effect1_foregroundBlur_143_780"/>
</filter>
<radialGradient id="paint0_radial_143_780" cx="0" cy="0" r="1" gradientUnits="userSpaceOnUse" gradientTransform="translate(33.4046 34.4179) rotate(95.7554) scale(40.8907 43.2849)">
<stop stop-color="#8CD3FF"/>
<stop offset="1" stop-color="#009EFF"/>
</radialGradient>
<radialGradient id="paint1_radial_143_780" cx="0" cy="0" r="1" gradientUnits="userSpaceOnUse" gradientTransform="translate(33.4046 34.4179) rotate(95.7554) scale(40.8907 43.2849)">
<stop stop-color="#8CD3FF"/>
<stop offset="1" stop-color="#009EFF"/>
</radialGradient>
<radialGradient id="paint2_radial_143_780" cx="0" cy="0" r="1" gradientUnits="userSpaceOnUse" gradientTransform="translate(33.403 32.9791) rotate(105.44) scale(24.1054 24.1923)">
<stop stop-color="#6860FF"/>
<stop offset="0.664445" stop-color="#BEBAFF"/>
</radialGradient>
<radialGradient id="paint3_radial_143_780" cx="0" cy="0" r="1" gradientUnits="userSpaceOnUse" gradientTransform="translate(33.403 32.9791) rotate(105.44) scale(24.1054 24.1923)">
<stop stop-color="#6860FF"/>
<stop offset="0.664445" stop-color="#BEBAFF"/>
</radialGradient>
<clipPath id="clip0_143_780">
<rect width="64" height="64" rx="14.8508" fill="white"/>
</clipPath>
</defs>
</svg>
