<svg width="64" height="64" viewBox="0 0 64 64" fill="none" xmlns="http://www.w3.org/2000/svg">
<g filter="url(#filter0_dd_143_779)">
<g clip-path="url(#clip0_143_779)">
<rect width="51.5" height="51.5" transform="translate(6.25 6.25)" fill="white"/>
<mask id="mask0_143_779" style="mask-type:alpha" maskUnits="userSpaceOnUse" x="12" y="13" width="40" height="39">
<path fill-rule="evenodd" clip-rule="evenodd" d="M45.5004 26.0908C47.4334 26.0908 49.0004 27.6578 49.0004 29.5908V39.3083C48.9924 41.8605 48.0387 44.3191 46.3236 46.2091C44.6085 48.0991 42.2538 49.2863 39.7144 49.5413C37.1749 49.7963 34.6311 49.101 32.5745 47.5897C30.5178 46.0785 29.0944 43.8586 28.5791 41.3589C31.3467 40.6349 33.7961 39.0136 35.5438 36.7487C37.2914 34.4839 38.2387 31.7034 38.2372 28.8427V26.0908H45.5004ZM38.5347 39.8077C36.756 39.7493 35.0127 40.3129 33.6047 41.4014C33.335 41.6217 33.1634 41.9399 33.1276 42.2863C33.0917 42.6328 33.1945 42.9793 33.4135 43.2502C33.5209 43.3893 33.6556 43.5052 33.8093 43.5906C33.963 43.6761 34.1325 43.7294 34.3074 43.7473C34.4824 43.7651 34.6591 43.7473 34.8269 43.6947C34.9947 43.6421 35.15 43.5559 35.2834 43.4414C36.2198 42.7141 37.3816 42.3381 38.5666 42.3789C39.7513 42.3399 40.9125 42.7157 41.8497 43.4414C42.1199 43.6571 42.4641 43.7579 42.8079 43.7221C43.1518 43.6863 43.4678 43.5169 43.6879 43.2502C43.7939 43.1135 43.872 42.9571 43.9177 42.7902C43.9633 42.6233 43.9756 42.4491 43.9539 42.2774C43.9322 42.1057 43.8769 41.94 43.7911 41.7897C43.7054 41.6394 43.5909 41.5075 43.4541 41.4014C42.0494 40.3145 40.3099 39.7509 38.5347 39.8077ZM44.4535 32.1603C44.1109 32.1078 43.7615 32.1935 43.4821 32.3987L42.4287 33.1722C42.1493 33.3773 41.9629 33.6851 41.9105 34.0277C41.858 34.3703 41.9437 34.7197 42.1489 34.9991C42.354 35.2785 42.6618 35.4649 43.0044 35.5174C43.347 35.5699 43.6964 35.4841 43.9758 35.2789L45.0292 34.5054C45.3085 34.3003 45.4949 33.9926 45.5474 33.65C45.5999 33.3074 45.5142 32.9579 45.309 32.6785C45.1039 32.3992 44.7961 32.2128 44.4535 32.1603Z" fill="white" fill-opacity="0.7"/>
<path fill-rule="evenodd" clip-rule="evenodd" d="M35.6236 28.8425V19.125C35.6236 17.192 34.0566 15.625 32.1236 15.625H18.5004C16.5674 15.625 15.0004 17.192 15.0004 19.125V28.8425C14.9561 30.2245 15.1899 31.6013 15.6882 32.8911C16.1864 34.1809 16.9388 35.3574 17.9007 36.3507C18.8626 37.344 20.0144 38.1337 21.2875 38.6731C22.5607 39.2125 23.9293 39.4904 25.312 39.4904C26.6947 39.4904 28.0633 39.2125 29.3364 38.6731C30.6096 38.1337 31.7613 37.344 32.7232 36.3507C33.6851 35.3574 34.4376 34.1809 34.9358 32.8911C35.434 31.6013 35.6679 30.2245 35.6236 28.8425ZM18.2729 22.8181C18.2715 22.6461 18.3044 22.4755 18.3695 22.3163C18.4347 22.1571 18.5309 22.0125 18.6525 21.8909C18.7742 21.7692 18.9188 21.673 19.078 21.6078C19.2372 21.5427 19.4078 21.5098 19.5798 21.5113H20.8867C21.2333 21.5113 21.5657 21.6489 21.8108 21.894C22.0559 22.1391 22.1936 22.4715 22.1936 22.8181C22.1936 23.1647 22.0559 23.4971 21.8108 23.7422C21.5657 23.9873 21.2333 24.125 20.8867 24.125H19.5798C19.4078 24.1264 19.2372 24.0936 19.078 24.0284C18.9188 23.9632 18.7742 23.867 18.6525 23.7454C18.5309 23.6237 18.4347 23.4791 18.3695 23.3199C18.3044 23.1607 18.2715 22.9901 18.2729 22.8181ZM30.3748 32.3806C28.9734 33.466 27.2378 34.0295 25.4661 33.9744C23.6874 34.0327 21.944 33.4691 20.5361 32.3806C20.2655 32.1622 20.0928 31.8453 20.056 31.4996C20.0191 31.1539 20.1211 30.8077 20.3395 30.5372C20.5579 30.2667 20.8748 30.094 21.2205 30.0571C21.5662 30.0203 21.9124 30.1222 22.1829 30.3406C23.118 31.0704 24.2807 31.4466 25.4661 31.4031C26.6505 31.4403 27.8111 31.0647 28.7492 30.3406C28.881 30.2314 29.0332 30.1497 29.1971 30.1001C29.3609 30.0506 29.5329 30.0342 29.7031 30.052C29.8734 30.0698 30.0383 30.1215 30.1883 30.2039C30.3383 30.2863 30.4703 30.3978 30.5767 30.5319C30.7814 30.8013 30.8746 31.1391 30.8371 31.4754C30.7995 31.8117 30.634 32.1206 30.3748 32.3381V32.3806ZM31.3417 24.125H30.0348C29.8632 24.125 29.6932 24.0912 29.5347 24.0255C29.3761 23.9598 29.2321 23.8636 29.1107 23.7422C28.9893 23.6209 28.8931 23.4768 28.8274 23.3182C28.7617 23.1597 28.7279 22.9897 28.7279 22.8181C28.7279 22.6465 28.7617 22.4766 28.8274 22.318C28.8931 22.1594 28.9893 22.0154 29.1107 21.894C29.2321 21.7727 29.3761 21.6764 29.5347 21.6107C29.6932 21.5451 29.8632 21.5113 30.0348 21.5113H31.3417C31.5133 21.5113 31.6832 21.5451 31.8418 21.6107C32.0004 21.6764 32.1444 21.7727 32.2658 21.894C32.3871 22.0154 32.4834 22.1594 32.5491 22.318C32.6148 22.4766 32.6486 22.6465 32.6486 22.8181C32.6486 22.9897 32.6148 23.1597 32.5491 23.3182C32.4834 23.4768 32.3871 23.6209 32.2658 23.7422C32.1444 23.8636 32.0004 23.9598 31.8418 24.0255C31.6832 24.0912 31.5133 24.125 31.3417 24.125Z" fill="white"/>
</mask>
<g mask="url(#mask0_143_779)">
<g filter="url(#filter1_f_143_779)">
<path d="M10.0622 15.6083H51.6531V49.6401H10.0622V15.6083Z" fill="#3E98FE"/>
<path fill-rule="evenodd" clip-rule="evenodd" d="M19.5471 10.3059C22.4796 9.81811 25.2359 11.4957 27.5354 13.2477C30.1391 15.2315 32.8304 17.5242 33.1018 20.6335C33.3881 23.914 31.4786 27.0109 28.9379 29.3161C26.422 31.5988 23.0583 33.2196 19.5471 32.9317C16.2473 32.6612 13.9471 30.1402 11.6861 27.9015C9.53683 25.7735 6.59195 23.5029 7.12609 20.6335C7.6452 17.8448 11.719 17.392 13.9947 15.4998C16.0298 13.8077 16.8533 10.7539 19.5471 10.3059Z" fill="url(#paint0_radial_143_779)"/>
<path fill-rule="evenodd" clip-rule="evenodd" d="M36.8478 33.0422C39.4729 32.6019 41.9403 34.1161 43.9987 35.6974C46.3295 37.488 48.7388 39.5574 48.9817 42.3638C49.238 45.3248 47.5287 48.1201 45.2543 50.2007C43.0021 52.2611 39.991 53.7241 36.8478 53.4642C33.8938 53.22 31.8347 50.9446 29.8107 48.924C27.8867 47.0032 25.2505 44.9538 25.7287 42.3638C26.1934 39.8468 29.8402 39.4381 31.8773 37.7302C33.6992 36.2029 34.4363 33.4466 36.8478 33.0422Z" fill="url(#paint1_radial_143_779)"/>
<path fill-rule="evenodd" clip-rule="evenodd" d="M52.1544 15.887C54.2089 16.9642 54.5779 22.6183 55.9208 26.0892C57.0181 28.9253 59.3024 30.4197 59.1943 34.082C59.0862 37.7412 56.7451 38.6431 55.4766 41.1321C54.3053 43.4303 53.7126 47.1702 52.1544 47.8951C50.3423 48.7381 43.5495 47.6365 42.0474 45.3265C40.2439 42.5531 43.2962 38.7887 43.0923 34.082C42.8761 29.0915 44.2078 24.3042 45.9161 20.8439C47.5858 17.4617 49.9135 14.7122 52.1544 15.887Z" fill="url(#paint2_radial_143_779)"/>
<path fill-rule="evenodd" clip-rule="evenodd" d="M38.3451 4.46397C40.3996 5.05507 40.7686 8.15776 42.1116 10.0625C43.2089 11.6187 45.4931 12.4388 45.385 14.4485C45.2769 16.4565 42.9358 16.9514 41.6673 18.3173C40.496 19.5784 39.9033 21.6307 38.3451 22.0285C36.533 22.4911 29.7402 21.8866 28.2381 20.619C26.4346 19.097 29.4869 17.0313 29.283 14.4485C29.0668 11.71 30.3986 9.08293 32.1068 7.18406C33.7765 5.32808 36.1042 3.81926 38.3451 4.46397Z" fill="url(#paint3_radial_143_779)"/>
<path fill-rule="evenodd" clip-rule="evenodd" d="M18.4154 38.253C20.1012 38.2209 18.7232 39.4447 19.801 41.2726C20.8991 43.1349 22.8713 43.3561 22.8287 45.7772C22.7884 48.0648 28.7854 46.3485 27.9241 48.288C27.0239 50.3147 20.1113 53.6009 18.4154 53.6386C16.6865 53.6771 14.8094 53.3921 13.6405 51.5956C12.5008 49.8438 12.6982 47.2403 12.7058 44.863C12.7132 42.502 12.3887 39.6885 13.6829 38.1903C14.9504 36.7229 16.7756 38.2842 18.4154 38.253Z" fill="#BEBAFF"/>
</g>
</g>
</g>
<rect x="6.81906" y="6.81906" width="50.3619" height="50.3619" rx="11.3812" stroke="white" stroke-opacity="0.5" stroke-width="1.13812"/>
</g>
<defs>
<filter id="filter0_dd_143_779" x="4.68508" y="5.25414" width="54.6298" height="54.6298" filterUnits="userSpaceOnUse" color-interpolation-filters="sRGB">
<feFlood flood-opacity="0" result="BackgroundImageFix"/>
<feColorMatrix in="SourceAlpha" type="matrix" values="0 0 0 0 0 0 0 0 0 0 0 0 0 0 0 0 0 0 127 0" result="hardAlpha"/>
<feOffset dy="0.142265"/>
<feGaussianBlur stdDeviation="0.213398"/>
<feColorMatrix type="matrix" values="0 0 0 0 0 0 0 0 0 0 0 0 0 0 0 0 0 0 0.3 0"/>
<feBlend mode="normal" in2="BackgroundImageFix" result="effect1_dropShadow_143_779"/>
<feColorMatrix in="SourceAlpha" type="matrix" values="0 0 0 0 0 0 0 0 0 0 0 0 0 0 0 0 0 0 127 0" result="hardAlpha"/>
<feMorphology radius="0.426796" operator="dilate" in="SourceAlpha" result="effect2_dropShadow_143_779"/>
<feOffset dy="0.569061"/>
<feGaussianBlur stdDeviation="0.569061"/>
<feColorMatrix type="matrix" values="0 0 0 0 0 0 0 0 0 0 0 0 0 0 0 0 0 0 0.15 0"/>
<feBlend mode="normal" in2="effect1_dropShadow_143_779" result="effect2_dropShadow_143_779"/>
<feBlend mode="normal" in="SourceGraphic" in2="effect2_dropShadow_143_779" result="shape"/>
</filter>
<filter id="filter1_f_143_779" x="1.90065" y="-0.849353" width="62.4592" height="59.6531" filterUnits="userSpaceOnUse" color-interpolation-filters="sRGB">
<feFlood flood-opacity="0" result="BackgroundImageFix"/>
<feBlend mode="normal" in="SourceGraphic" in2="BackgroundImageFix" result="shape"/>
<feGaussianBlur stdDeviation="2.58093" result="effect1_foregroundBlur_143_779"/>
</filter>
<radialGradient id="paint0_radial_143_779" cx="0" cy="0" r="1" gradientUnits="userSpaceOnUse" gradientTransform="translate(33.1302 33.9456) rotate(95.7554) scale(32.9042 34.8308)">
<stop stop-color="#8CD3FF"/>
<stop offset="1" stop-color="#009EFF"/>
</radialGradient>
<radialGradient id="paint1_radial_143_779" cx="0" cy="0" r="1" gradientUnits="userSpaceOnUse" gradientTransform="translate(33.1302 33.9456) rotate(95.7554) scale(32.9042 34.8308)">
<stop stop-color="#8CD3FF"/>
<stop offset="1" stop-color="#009EFF"/>
</radialGradient>
<radialGradient id="paint2_radial_143_779" cx="0" cy="0" r="1" gradientUnits="userSpaceOnUse" gradientTransform="translate(33.1289 32.7878) rotate(105.44) scale(19.3973 19.4672)">
<stop stop-color="#6860FF"/>
<stop offset="0.664445" stop-color="#BEBAFF"/>
</radialGradient>
<radialGradient id="paint3_radial_143_779" cx="0" cy="0" r="1" gradientUnits="userSpaceOnUse" gradientTransform="translate(33.1289 32.7878) rotate(105.44) scale(19.3973 19.4672)">
<stop stop-color="#6860FF"/>
<stop offset="0.664445" stop-color="#BEBAFF"/>
</radialGradient>
<clipPath id="clip0_143_779">
<rect x="6.25" y="6.25" width="51.5" height="51.5" rx="11.9503" fill="white"/>
</clipPath>
</defs>
</svg>
